<mxfile host="65bd71144e">
    <diagram id="am0WK1S8mP4a6N8GGikc" name="Page-1">
        <mxGraphModel dx="1983" dy="1860" grid="1" gridSize="10" guides="1" tooltips="1" connect="1" arrows="1" fold="1" page="1" pageScale="1" pageWidth="850" pageHeight="1100" math="0" shadow="0">
            <root>
                <mxCell id="0"/>
                <mxCell id="1" parent="0"/>
                <mxCell id="8" value="&lt;u&gt;ID_no&lt;/u&gt;" style="rounded=0;whiteSpace=wrap;html=1;" parent="1" vertex="1">
                    <mxGeometry x="30" y="40" width="120" height="60" as="geometry"/>
                </mxCell>
                <mxCell id="ettej1D80MfuusV0eJ2X-92" style="edgeStyle=none;html=1;exitX=0.5;exitY=1;exitDx=0;exitDy=0;entryX=0.5;entryY=0;entryDx=0;entryDy=0;" edge="1" parent="1" source="9" target="ettej1D80MfuusV0eJ2X-51">
                    <mxGeometry relative="1" as="geometry">
                        <mxPoint x="570" y="1250" as="targetPoint"/>
                        <Array as="points">
                            <mxPoint x="210" y="170"/>
                            <mxPoint x="-160" y="170"/>
                            <mxPoint x="-160" y="1570"/>
                            <mxPoint x="105" y="1570"/>
                        </Array>
                    </mxGeometry>
                </mxCell>
                <mxCell id="9" value="Artist" style="rounded=0;whiteSpace=wrap;html=1;" parent="1" vertex="1">
                    <mxGeometry x="150" y="40" width="120" height="60" as="geometry"/>
                </mxCell>
                <mxCell id="10" value="Year_created" style="rounded=0;whiteSpace=wrap;html=1;" parent="1" vertex="1">
                    <mxGeometry x="270" y="40" width="120" height="60" as="geometry"/>
                </mxCell>
                <mxCell id="11" value="ART_OBJECT" style="text;html=1;strokeColor=none;fillColor=none;align=center;verticalAlign=middle;whiteSpace=wrap;rounded=0;" parent="1" vertex="1">
                    <mxGeometry x="40" y="-20" width="110" height="30" as="geometry"/>
                </mxCell>
                <mxCell id="12" value="Title" style="rounded=0;whiteSpace=wrap;html=1;" parent="1" vertex="1">
                    <mxGeometry x="390" y="40" width="120" height="60" as="geometry"/>
                </mxCell>
                <mxCell id="13" value="AO_description" style="rounded=0;whiteSpace=wrap;html=1;" parent="1" vertex="1">
                    <mxGeometry x="510" y="40" width="120" height="60" as="geometry"/>
                </mxCell>
                <mxCell id="14" value="PAINTING" style="text;html=1;strokeColor=none;fillColor=none;align=center;verticalAlign=middle;whiteSpace=wrap;rounded=0;" parent="1" vertex="1">
                    <mxGeometry x="40" y="210" width="100" height="30" as="geometry"/>
                </mxCell>
                <mxCell id="ettej1D80MfuusV0eJ2X-83" style="edgeStyle=none;html=1;exitX=0.5;exitY=0;exitDx=0;exitDy=0;entryX=0;entryY=0.5;entryDx=0;entryDy=0;" edge="1" parent="1" source="15" target="8">
                    <mxGeometry relative="1" as="geometry">
                        <Array as="points">
                            <mxPoint x="-40" y="250"/>
                            <mxPoint x="-40" y="70"/>
                        </Array>
                    </mxGeometry>
                </mxCell>
                <mxCell id="15" value="ID_no" style="rounded=0;whiteSpace=wrap;html=1;" parent="1" vertex="1">
                    <mxGeometry x="30" y="250" width="120" height="60" as="geometry"/>
                </mxCell>
                <mxCell id="16" value="Paint_type" style="rounded=0;whiteSpace=wrap;html=1;" parent="1" vertex="1">
                    <mxGeometry x="150" y="250" width="120" height="60" as="geometry"/>
                </mxCell>
                <mxCell id="17" value="Drawn_on" style="rounded=0;whiteSpace=wrap;html=1;" parent="1" vertex="1">
                    <mxGeometry x="270" y="250" width="120" height="60" as="geometry"/>
                </mxCell>
                <mxCell id="18" value="Style" style="rounded=0;whiteSpace=wrap;html=1;" parent="1" vertex="1">
                    <mxGeometry x="390" y="250" width="120" height="60" as="geometry"/>
                </mxCell>
                <mxCell id="19" value="SCULPTURE/STATUE" style="text;html=1;strokeColor=none;fillColor=none;align=center;verticalAlign=middle;whiteSpace=wrap;rounded=0;" parent="1" vertex="1">
                    <mxGeometry x="28.75" y="390" width="152.5" height="30" as="geometry"/>
                </mxCell>
                <mxCell id="ettej1D80MfuusV0eJ2X-84" style="edgeStyle=none;html=1;exitX=0;exitY=0.5;exitDx=0;exitDy=0;entryX=0;entryY=0.5;entryDx=0;entryDy=0;" edge="1" parent="1" source="20" target="8">
                    <mxGeometry relative="1" as="geometry">
                        <mxPoint x="-40" y="480" as="targetPoint"/>
                        <Array as="points">
                            <mxPoint x="-40" y="480"/>
                            <mxPoint x="-40" y="70"/>
                        </Array>
                    </mxGeometry>
                </mxCell>
                <mxCell id="20" value="ID_no" style="rounded=0;whiteSpace=wrap;html=1;" parent="1" vertex="1">
                    <mxGeometry x="35" y="450" width="120" height="60" as="geometry"/>
                </mxCell>
                <mxCell id="21" value="Material" style="rounded=0;whiteSpace=wrap;html=1;" parent="1" vertex="1">
                    <mxGeometry x="155" y="450" width="120" height="60" as="geometry"/>
                </mxCell>
                <mxCell id="22" value="Height" style="rounded=0;whiteSpace=wrap;html=1;" parent="1" vertex="1">
                    <mxGeometry x="275" y="450" width="120" height="60" as="geometry"/>
                </mxCell>
                <mxCell id="23" value="S_weight" style="rounded=0;whiteSpace=wrap;html=1;" parent="1" vertex="1">
                    <mxGeometry x="395" y="450" width="120" height="60" as="geometry"/>
                </mxCell>
                <mxCell id="24" value="Style" style="rounded=0;whiteSpace=wrap;html=1;" parent="1" vertex="1">
                    <mxGeometry x="515" y="450" width="120" height="60" as="geometry"/>
                </mxCell>
                <mxCell id="31" value="OTHER" style="text;html=1;strokeColor=none;fillColor=none;align=center;verticalAlign=middle;whiteSpace=wrap;rounded=0;" parent="1" vertex="1">
                    <mxGeometry x="52.5" y="880" width="95" height="30" as="geometry"/>
                </mxCell>
                <mxCell id="ettej1D80MfuusV0eJ2X-86" style="edgeStyle=none;html=1;exitX=0;exitY=0.5;exitDx=0;exitDy=0;entryX=0;entryY=0.5;entryDx=0;entryDy=0;" edge="1" parent="1" source="32" target="8">
                    <mxGeometry relative="1" as="geometry">
                        <mxPoint x="-10" y="330" as="targetPoint"/>
                        <Array as="points">
                            <mxPoint x="-40" y="980"/>
                            <mxPoint x="-40" y="70"/>
                        </Array>
                    </mxGeometry>
                </mxCell>
                <mxCell id="32" value="ID_no" style="rounded=0;whiteSpace=wrap;html=1;" parent="1" vertex="1">
                    <mxGeometry x="41" y="950" width="120" height="60" as="geometry"/>
                </mxCell>
                <mxCell id="35" value="A_type" style="rounded=0;whiteSpace=wrap;html=1;" parent="1" vertex="1">
                    <mxGeometry x="161" y="950" width="120" height="60" as="geometry"/>
                </mxCell>
                <mxCell id="36" value="Style" style="rounded=0;whiteSpace=wrap;html=1;" parent="1" vertex="1">
                    <mxGeometry x="281" y="950" width="120" height="60" as="geometry"/>
                </mxCell>
                <mxCell id="37" value="Permanent Collection" style="text;html=1;strokeColor=none;fillColor=none;align=center;verticalAlign=middle;whiteSpace=wrap;rounded=0;" parent="1" vertex="1">
                    <mxGeometry x="45" y="1120" width="175" height="30" as="geometry"/>
                </mxCell>
                <mxCell id="ettej1D80MfuusV0eJ2X-87" style="edgeStyle=none;html=1;exitX=0;exitY=0.5;exitDx=0;exitDy=0;entryX=0;entryY=0.5;entryDx=0;entryDy=0;" edge="1" parent="1" source="38" target="8">
                    <mxGeometry relative="1" as="geometry">
                        <mxPoint x="40" y="660" as="targetPoint"/>
                        <Array as="points">
                            <mxPoint x="-40" y="1210"/>
                            <mxPoint x="-40" y="70"/>
                        </Array>
                    </mxGeometry>
                </mxCell>
                <mxCell id="38" value="ID_no" style="rounded=0;whiteSpace=wrap;html=1;" parent="1" vertex="1">
                    <mxGeometry x="45" y="1180" width="120" height="60" as="geometry"/>
                </mxCell>
                <mxCell id="39" value="Date_acquired" style="rounded=0;whiteSpace=wrap;html=1;" parent="1" vertex="1">
                    <mxGeometry x="165" y="1180" width="120" height="60" as="geometry"/>
                </mxCell>
                <mxCell id="42" value="A_status" style="rounded=0;whiteSpace=wrap;html=1;" vertex="1" parent="1">
                    <mxGeometry x="285" y="1180" width="120" height="60" as="geometry"/>
                </mxCell>
                <mxCell id="43" value="Cost" style="rounded=0;whiteSpace=wrap;html=1;" vertex="1" parent="1">
                    <mxGeometry x="405" y="1180" width="120" height="60" as="geometry"/>
                </mxCell>
                <mxCell id="45" value="Borrowed" style="text;html=1;strokeColor=none;fillColor=none;align=center;verticalAlign=middle;whiteSpace=wrap;rounded=0;" vertex="1" parent="1">
                    <mxGeometry x="47.5" y="1360" width="119" height="30" as="geometry"/>
                </mxCell>
                <mxCell id="ettej1D80MfuusV0eJ2X-88" style="edgeStyle=none;html=1;exitX=0;exitY=0.5;exitDx=0;exitDy=0;entryX=0;entryY=0.5;entryDx=0;entryDy=0;" edge="1" parent="1" source="46" target="8">
                    <mxGeometry relative="1" as="geometry">
                        <mxPoint x="40" y="630" as="targetPoint"/>
                        <Array as="points">
                            <mxPoint x="-40" y="1440"/>
                            <mxPoint x="-40" y="70"/>
                        </Array>
                    </mxGeometry>
                </mxCell>
                <mxCell id="46" value="ID_no" style="rounded=0;whiteSpace=wrap;html=1;" vertex="1" parent="1">
                    <mxGeometry x="45" y="1410" width="120" height="60" as="geometry"/>
                </mxCell>
                <mxCell id="ettej1D80MfuusV0eJ2X-93" style="edgeStyle=none;html=1;exitX=0.5;exitY=1;exitDx=0;exitDy=0;entryX=0.5;entryY=0;entryDx=0;entryDy=0;" edge="1" parent="1" source="47" target="ettej1D80MfuusV0eJ2X-59">
                    <mxGeometry relative="1" as="geometry">
                        <Array as="points">
                            <mxPoint x="225" y="1530"/>
                            <mxPoint x="-120" y="1530"/>
                            <mxPoint x="-120" y="1860"/>
                            <mxPoint x="108" y="1860"/>
                        </Array>
                    </mxGeometry>
                </mxCell>
                <mxCell id="47" value="Collection_from" style="rounded=0;whiteSpace=wrap;html=1;" vertex="1" parent="1">
                    <mxGeometry x="165" y="1410" width="120" height="60" as="geometry"/>
                </mxCell>
                <mxCell id="48" value="Date_borrowed" style="rounded=0;whiteSpace=wrap;html=1;" vertex="1" parent="1">
                    <mxGeometry x="285" y="1410" width="120" height="60" as="geometry"/>
                </mxCell>
                <mxCell id="49" value="Date_returned" style="rounded=0;whiteSpace=wrap;html=1;" vertex="1" parent="1">
                    <mxGeometry x="405" y="1410" width="120" height="60" as="geometry"/>
                </mxCell>
                <mxCell id="ettej1D80MfuusV0eJ2X-50" value="Artist" style="text;html=1;strokeColor=none;fillColor=none;align=center;verticalAlign=middle;whiteSpace=wrap;rounded=0;" vertex="1" parent="1">
                    <mxGeometry x="52.5" y="1580" width="135" height="30" as="geometry"/>
                </mxCell>
                <mxCell id="ettej1D80MfuusV0eJ2X-51" value="&lt;u&gt;A_name&lt;/u&gt;" style="rounded=0;whiteSpace=wrap;html=1;" vertex="1" parent="1">
                    <mxGeometry x="45" y="1630" width="120" height="60" as="geometry"/>
                </mxCell>
                <mxCell id="ettej1D80MfuusV0eJ2X-52" value="Date_born" style="rounded=0;whiteSpace=wrap;html=1;" vertex="1" parent="1">
                    <mxGeometry x="165" y="1630" width="120" height="60" as="geometry"/>
                </mxCell>
                <mxCell id="ettej1D80MfuusV0eJ2X-53" value="Date_died" style="rounded=0;whiteSpace=wrap;html=1;" vertex="1" parent="1">
                    <mxGeometry x="285" y="1630" width="120" height="60" as="geometry"/>
                </mxCell>
                <mxCell id="ettej1D80MfuusV0eJ2X-91" style="edgeStyle=none;html=1;exitX=0.5;exitY=0;exitDx=0;exitDy=0;entryX=0.5;entryY=1;entryDx=0;entryDy=0;" edge="1" parent="1" source="ettej1D80MfuusV0eJ2X-54" target="ettej1D80MfuusV0eJ2X-67">
                    <mxGeometry relative="1" as="geometry">
                        <mxPoint x="390" y="1842.3076923076924" as="targetPoint"/>
                        <Array as="points">
                            <mxPoint x="465" y="1530"/>
                            <mxPoint x="980" y="1530"/>
                            <mxPoint x="980" y="2240"/>
                            <mxPoint x="108" y="2240"/>
                        </Array>
                    </mxGeometry>
                </mxCell>
                <mxCell id="ettej1D80MfuusV0eJ2X-54" value="Country_of_origin" style="rounded=0;whiteSpace=wrap;html=1;" vertex="1" parent="1">
                    <mxGeometry x="405" y="1630" width="120" height="60" as="geometry"/>
                </mxCell>
                <mxCell id="ettej1D80MfuusV0eJ2X-90" style="edgeStyle=none;html=1;exitX=0.5;exitY=0;exitDx=0;exitDy=0;entryX=0.5;entryY=0;entryDx=0;entryDy=0;" edge="1" parent="1" source="ettej1D80MfuusV0eJ2X-55" target="ettej1D80MfuusV0eJ2X-74">
                    <mxGeometry relative="1" as="geometry">
                        <mxPoint x="450" y="2290" as="targetPoint"/>
                        <Array as="points">
                            <mxPoint x="585" y="1560"/>
                            <mxPoint x="950" y="1560"/>
                            <mxPoint x="950" y="2320"/>
                            <mxPoint x="105" y="2320"/>
                        </Array>
                    </mxGeometry>
                </mxCell>
                <mxCell id="ettej1D80MfuusV0eJ2X-55" value="Epoch" style="rounded=0;whiteSpace=wrap;html=1;" vertex="1" parent="1">
                    <mxGeometry x="525" y="1630" width="120" height="60" as="geometry"/>
                </mxCell>
                <mxCell id="ettej1D80MfuusV0eJ2X-56" value="Main_style" style="rounded=0;whiteSpace=wrap;html=1;" vertex="1" parent="1">
                    <mxGeometry x="645" y="1630" width="120" height="60" as="geometry"/>
                </mxCell>
                <mxCell id="ettej1D80MfuusV0eJ2X-57" value="A_description" style="rounded=0;whiteSpace=wrap;html=1;" vertex="1" parent="1">
                    <mxGeometry x="765" y="1630" width="120" height="60" as="geometry"/>
                </mxCell>
                <mxCell id="ettej1D80MfuusV0eJ2X-58" value="Collection" style="text;html=1;strokeColor=none;fillColor=none;align=center;verticalAlign=middle;whiteSpace=wrap;rounded=0;" vertex="1" parent="1">
                    <mxGeometry x="47.5" y="1810" width="129" height="30" as="geometry"/>
                </mxCell>
                <mxCell id="ettej1D80MfuusV0eJ2X-59" value="&lt;u&gt;C_name&lt;/u&gt;" style="rounded=0;whiteSpace=wrap;html=1;" vertex="1" parent="1">
                    <mxGeometry x="47.5" y="1880" width="120" height="60" as="geometry"/>
                </mxCell>
                <mxCell id="ettej1D80MfuusV0eJ2X-60" value="C_type" style="rounded=0;whiteSpace=wrap;html=1;" vertex="1" parent="1">
                    <mxGeometry x="167" y="1880" width="120" height="60" as="geometry"/>
                </mxCell>
                <mxCell id="ettej1D80MfuusV0eJ2X-61" value="C_description" style="rounded=0;whiteSpace=wrap;html=1;" vertex="1" parent="1">
                    <mxGeometry x="287" y="1880" width="120" height="60" as="geometry"/>
                </mxCell>
                <mxCell id="ettej1D80MfuusV0eJ2X-62" value="C_address" style="rounded=0;whiteSpace=wrap;html=1;" vertex="1" parent="1">
                    <mxGeometry x="405" y="1880" width="120" height="60" as="geometry"/>
                </mxCell>
                <mxCell id="ettej1D80MfuusV0eJ2X-63" value="phone_num" style="rounded=0;whiteSpace=wrap;html=1;" vertex="1" parent="1">
                    <mxGeometry x="525" y="1880" width="120" height="60" as="geometry"/>
                </mxCell>
                <mxCell id="ettej1D80MfuusV0eJ2X-64" value="Contact_person" style="rounded=0;whiteSpace=wrap;html=1;" vertex="1" parent="1">
                    <mxGeometry x="645" y="1880" width="120" height="60" as="geometry"/>
                </mxCell>
                <mxCell id="ettej1D80MfuusV0eJ2X-66" value="Country Info" style="text;html=1;strokeColor=none;fillColor=none;align=center;verticalAlign=middle;whiteSpace=wrap;rounded=0;" vertex="1" parent="1">
                    <mxGeometry x="66" y="2080" width="95" height="30" as="geometry"/>
                </mxCell>
                <mxCell id="ettej1D80MfuusV0eJ2X-67" value="&lt;u&gt;Country&lt;/u&gt;" style="rounded=0;whiteSpace=wrap;html=1;" vertex="1" parent="1">
                    <mxGeometry x="48" y="2130" width="120" height="60" as="geometry"/>
                </mxCell>
                <mxCell id="ettej1D80MfuusV0eJ2X-68" value="Coun_description" style="rounded=0;whiteSpace=wrap;html=1;" vertex="1" parent="1">
                    <mxGeometry x="167" y="2130" width="120" height="60" as="geometry"/>
                </mxCell>
                <mxCell id="ettej1D80MfuusV0eJ2X-70" value="Epoch" style="text;html=1;strokeColor=none;fillColor=none;align=center;verticalAlign=middle;whiteSpace=wrap;rounded=0;" vertex="1" parent="1">
                    <mxGeometry x="48" y="2330" width="105" height="30" as="geometry"/>
                </mxCell>
                <mxCell id="ettej1D80MfuusV0eJ2X-74" value="&lt;u&gt;Ep_type&lt;/u&gt;" style="rounded=0;whiteSpace=wrap;html=1;" vertex="1" parent="1">
                    <mxGeometry x="45" y="2380" width="120" height="60" as="geometry"/>
                </mxCell>
                <mxCell id="ettej1D80MfuusV0eJ2X-75" value="Ep_name" style="rounded=0;whiteSpace=wrap;html=1;" vertex="1" parent="1">
                    <mxGeometry x="165" y="2380" width="120" height="60" as="geometry"/>
                </mxCell>
                <mxCell id="ettej1D80MfuusV0eJ2X-76" value="Exhibitions" style="text;html=1;strokeColor=none;fillColor=none;align=center;verticalAlign=middle;whiteSpace=wrap;rounded=0;" vertex="1" parent="1">
                    <mxGeometry x="48" y="2580" width="102" height="30" as="geometry"/>
                </mxCell>
                <mxCell id="ettej1D80MfuusV0eJ2X-77" value="&lt;u&gt;E_name&lt;/u&gt;" style="rounded=0;whiteSpace=wrap;html=1;" vertex="1" parent="1">
                    <mxGeometry x="45" y="2640" width="120" height="60" as="geometry"/>
                </mxCell>
                <mxCell id="ettej1D80MfuusV0eJ2X-78" value="Start_date" style="rounded=0;whiteSpace=wrap;html=1;" vertex="1" parent="1">
                    <mxGeometry x="165" y="2640" width="120" height="60" as="geometry"/>
                </mxCell>
                <mxCell id="ettej1D80MfuusV0eJ2X-79" value="End_date" style="rounded=0;whiteSpace=wrap;html=1;" vertex="1" parent="1">
                    <mxGeometry x="285" y="2640" width="120" height="60" as="geometry"/>
                </mxCell>
                <mxCell id="ettej1D80MfuusV0eJ2X-80" value="Exhibit pieces" style="text;html=1;strokeColor=none;fillColor=none;align=center;verticalAlign=middle;whiteSpace=wrap;rounded=0;" vertex="1" parent="1">
                    <mxGeometry x="46" y="2840" width="104" height="30" as="geometry"/>
                </mxCell>
                <mxCell id="ettej1D80MfuusV0eJ2X-89" style="edgeStyle=none;html=1;exitX=0;exitY=0.5;exitDx=0;exitDy=0;entryX=0;entryY=0.5;entryDx=0;entryDy=0;" edge="1" parent="1" source="ettej1D80MfuusV0eJ2X-81" target="8">
                    <mxGeometry relative="1" as="geometry">
                        <mxPoint y="830" as="targetPoint"/>
                        <Array as="points">
                            <mxPoint x="-40" y="2920"/>
                            <mxPoint x="-40" y="70"/>
                        </Array>
                    </mxGeometry>
                </mxCell>
                <mxCell id="ettej1D80MfuusV0eJ2X-81" value="ID_no" style="rounded=0;whiteSpace=wrap;html=1;" vertex="1" parent="1">
                    <mxGeometry x="45" y="2890" width="120" height="60" as="geometry"/>
                </mxCell>
                <mxCell id="ettej1D80MfuusV0eJ2X-94" style="edgeStyle=none;html=1;exitX=0.5;exitY=0;exitDx=0;exitDy=0;entryX=0.5;entryY=1;entryDx=0;entryDy=0;" edge="1" parent="1" source="ettej1D80MfuusV0eJ2X-82" target="ettej1D80MfuusV0eJ2X-77">
                    <mxGeometry relative="1" as="geometry">
                        <Array as="points">
                            <mxPoint x="225" y="2800"/>
                            <mxPoint x="105" y="2800"/>
                        </Array>
                    </mxGeometry>
                </mxCell>
                <mxCell id="ettej1D80MfuusV0eJ2X-82" value="E_name" style="rounded=0;whiteSpace=wrap;html=1;" vertex="1" parent="1">
                    <mxGeometry x="165" y="2890" width="120" height="60" as="geometry"/>
                </mxCell>
            </root>
        </mxGraphModel>
    </diagram>
    <diagram id="573uRZlFuBseRpgZT0jG" name="Page-2">
        <mxGraphModel dx="680" dy="667" grid="1" gridSize="10" guides="1" tooltips="1" connect="1" arrows="1" fold="1" page="1" pageScale="1" pageWidth="850" pageHeight="1100" math="0" shadow="0">
            <root>
                <mxCell id="0"/>
                <mxCell id="1" parent="0"/>
            </root>
        </mxGraphModel>
    </diagram>
</mxfile>
